<svg xmlns="http://www.w3.org/2000/svg" height="512" viewBox="0 0 60 60" width="512"><path d="M55.5 60h-51A4.505 4.505 0 0 1 0 55.5v-51C0 2.019 2.019 0 4.5 0h51C57.981 0 60 2.019 60 4.5v51c0 2.481-2.019 4.5-4.5 4.5zM4.5 2A2.503 2.503 0 0 0 2 4.5v51C2 56.879 3.122 58 4.5 58h51c1.379 0 2.5-1.121 2.5-2.5v-51C58 3.121 56.878 2 55.5 2z" data-original="#000000" class="active-path" data-old_color="#000000" fill="#FFF"/><path d="M9 10H5a1 1 0 0 1-1-1V5a1 1 0 0 1 1-1h4a1 1 0 0 1 1 1v4a1 1 0 0 1-1 1zM6 8h2V6H6zm11 2h-4a1 1 0 0 1-1-1V5a1 1 0 0 1 1-1h4a1 1 0 0 1 1 1v4a1 1 0 0 1-1 1zm-3-2h2V6h-2zm11 2h-4a1 1 0 0 1-1-1V5a1 1 0 0 1 1-1h4a1 1 0 0 1 1 1v4a1 1 0 0 1-1 1zm-3-2h2V6h-2z" data-original="#000000" class="active-path" data-old_color="#000000" fill="#FFF"/><path d="M59 14H1a1 1 0 0 1-1-1V4.5C0 2.019 2.019 0 4.5 0h51C57.981 0 60 2.019 60 4.5V13a1 1 0 0 1-1 1zM2 12h56V4.5C58 3.121 56.878 2 55.5 2h-51A2.503 2.503 0 0 0 2 4.5zm26 22H6a1 1 0 0 1-1-1V19a1 1 0 0 1 1-1h22a1 1 0 0 1 1 1v14a1 1 0 0 1-1 1zM7 32h20V20H7zm42-7H33a1 1 0 1 1 0-2h16a1 1 0 1 1 0 2zm5-4H33a1 1 0 1 1 0-2h21a1 1 0 1 1 0 2zM43 34H33a1 1 0 0 1-1-1v-4a1 1 0 0 1 1-1h10a1 1 0 0 1 1 1v4a1 1 0 0 1-1 1zm-9-2h8v-2h-8z" data-original="#000000" class="active-path" data-old_color="#000000" fill="#FFF"/><path d="M10 30a.999.999 0 0 1-.707-1.707l4-4a.999.999 0 1 1 1.414 1.414l-4 4A.997.997 0 0 1 10 30z" data-original="#000000" class="active-path" data-old_color="#000000" fill="#FFF"/><path d="M18 30a.997.997 0 0 1-.707-.293l-4-4a.999.999 0 1 1 1.414-1.414l4 4A.999.999 0 0 1 18 30z" data-original="#000000" class="active-path" data-old_color="#000000" fill="#FFF"/><path d="M16 28a.999.999 0 0 1-.707-1.707l4-4a.999.999 0 1 1 1.414 1.414l-4 4A.997.997 0 0 1 16 28z" data-original="#000000" class="active-path" data-old_color="#000000" fill="#FFF"/><path d="M24 28a.997.997 0 0 1-.707-.293l-4-4a.999.999 0 1 1 1.414-1.414l4 4A.999.999 0 0 1 24 28zm4 26H6a1 1 0 0 1-1-1V39a1 1 0 0 1 1-1h22a1 1 0 0 1 1 1v14a1 1 0 0 1-1 1zM7 52h20V40H7zm42-7H33a1 1 0 1 1 0-2h16a1 1 0 1 1 0 2zm5-4H33a1 1 0 1 1 0-2h21a1 1 0 1 1 0 2zM43 54H33a1 1 0 0 1-1-1v-4a1 1 0 0 1 1-1h10a1 1 0 0 1 1 1v4a1 1 0 0 1-1 1zm-9-2h8v-2h-8z" data-original="#000000" class="active-path" data-old_color="#000000" fill="#FFF"/><path d="M10 50a.999.999 0 0 1-.707-1.707l4-4a.999.999 0 1 1 1.414 1.414l-4 4A.997.997 0 0 1 10 50z" data-original="#000000" class="active-path" data-old_color="#000000" fill="#FFF"/><path d="M18 50a.997.997 0 0 1-.707-.293l-4-4a.999.999 0 1 1 1.414-1.414l4 4A.999.999 0 0 1 18 50z" data-original="#000000" class="active-path" data-old_color="#000000" fill="#FFF"/><path d="M16 48a.999.999 0 0 1-.707-1.707l4-4a.999.999 0 1 1 1.414 1.414l-4 4A.997.997 0 0 1 16 48z" data-original="#000000" class="active-path" data-old_color="#000000" fill="#FFF"/><path d="M24 48a.997.997 0 0 1-.707-.293l-4-4a.999.999 0 1 1 1.414-1.414l4 4A.999.999 0 0 1 24 48z" data-original="#000000" class="active-path" data-old_color="#000000" fill="#FFF"/></svg>