<svg xmlns="http://www.w3.org/2000/svg" width="512" height="512"><path d="M504.417 208.764l-39.317-9.795-20.923-50.488 20.865-34.711a10 10 0 0 0-1.499-12.223l-53.09-53.089a10.002 10.002 0 0 0-12.224-1.5l-34.71 20.866L313.031 46.9l-9.796-39.317A9.998 9.998 0 0 0 293.532 0h-75.064a9.998 9.998 0 0 0-9.703 7.583L198.969 46.9 148.48 67.823l-34.71-20.866a10 10 0 0 0-12.224 1.5l-53.09 53.089a10 10 0 0 0-1.499 12.223l20.865 34.711L46.9 198.969l-39.317 9.795A10.001 10.001 0 0 0 0 218.468v75.064c0 4.592 3.127 8.593 7.583 9.704l39.316 9.794 20.924 50.489-20.865 34.711a10 10 0 0 0 1.499 12.223l53.09 53.089a10.004 10.004 0 0 0 12.224 1.5l34.71-20.866 50.488 20.924 9.796 39.317a9.998 9.998 0 0 0 9.703 7.583h75.064a9.998 9.998 0 0 0 9.703-7.583l9.796-39.317 50.488-20.924 34.71 20.866a10.004 10.004 0 0 0 12.224-1.5l53.09-53.089a10 10 0 0 0 1.499-12.223l-20.865-34.711 20.924-50.489 39.316-9.794a10 10 0 0 0 7.583-9.704v-75.064c0-4.592-3.127-8.593-7.583-9.704zM492 285.718l-36.625 9.124a10.003 10.003 0 0 0-6.821 5.875l-24.784 59.804a9.997 9.997 0 0 0 .668 8.98l19.438 32.336-42.038 42.038-32.335-19.438a9.997 9.997 0 0 0-8.98-.667l-59.804 24.784a10.003 10.003 0 0 0-5.875 6.821L285.718 492h-59.436l-9.125-36.626a10.003 10.003 0 0 0-5.875-6.821l-59.804-24.784a10.004 10.004 0 0 0-8.98.667l-32.335 19.438-42.038-42.038L87.563 369.5a9.997 9.997 0 0 0 .668-8.98l-24.784-59.804a10.003 10.003 0 0 0-6.821-5.875L20 285.718v-59.436l36.626-9.125a10 10 0 0 0 6.821-5.875l24.783-59.803a9.997 9.997 0 0 0-.668-8.98l-19.438-32.336 42.038-42.038 32.335 19.438a10 10 0 0 0 8.98.667l59.804-24.784a10.003 10.003 0 0 0 5.875-6.821L226.282 20h59.436l9.125 36.626a10.003 10.003 0 0 0 5.875 6.821l59.804 24.784a10 10 0 0 0 8.98-.667l32.335-19.438 42.038 42.038-19.438 32.336a9.997 9.997 0 0 0-.668 8.98l24.783 59.803a10 10 0 0 0 6.821 5.875L492 226.282v59.436z" data-original="#000000" class="active-path" data-old_color="#000000" fill="#7971EA"/><path d="M296.388 99.077c-5.354-1.375-10.8 1.851-12.173 7.2-1.372 5.349 1.851 10.799 7.2 12.172C354.171 134.556 398 191.119 398 256c0 34.062-12.06 65.359-32.128 89.853-1.303-12.098-6.051-23.697-13.72-33.224-9.093-11.294-21.9-19.22-36.065-22.317l-17.855-3.904c-4.792-1.048-8.408-5.007-9.152-9.793 15.616-10.62 25.895-28.529 25.895-48.796V194.64c0-32.518-26.455-58.973-58.974-58.973s-58.974 26.455-58.974 58.973v33.179c0 20.168 10.182 37.997 25.669 48.636-.667 4.834-4.313 8.898-9.172 9.964l-17.654 3.873c-14.154 3.105-26.952 11.033-36.035 22.325-7.666 9.53-12.411 21.134-13.709 33.234C126.059 321.356 114 290.061 114 256c0-63.948 43.045-120.304 104.676-137.046 5.33-1.448 8.477-6.942 7.029-12.272-1.448-5.329-6.943-8.477-12.271-7.029C143.112 118.756 94 183.048 94 256c0 89.327 72.673 162 162 162s162-72.673 162-162c0-74.016-50.009-138.545-121.612-156.923zm-79.362 95.563c0-21.49 17.484-38.973 38.974-38.973s38.974 17.483 38.974 38.973v.884a35.194 35.194 0 0 1-15.899-9.011l-8.896-8.736a10.002 10.002 0 0 0-15.584 1.993c-6.243 10.416-17.665 16.886-29.809 16.886h-7.76v-2.016zm0 33.178v-11.163h7.76c14.935 0 29.178-6.213 39.387-16.745l.887.871c8.273 8.127 18.671 13.342 29.914 15.152v11.885c0 21.49-17.483 38.973-38.974 38.973-21.491 0-38.974-17.483-38.974-38.973zm58.65 66.533c-11.702 8.647-27.845 8.605-39.507-.119a32.127 32.127 0 0 0 4.991-9.334 58.874 58.874 0 0 0 14.84 1.894c5.041 0 9.936-.638 14.609-1.834a32.142 32.142 0 0 0 5.067 9.393zm70.575 71.2C321.698 385.814 290.246 398 256 398s-65.698-12.186-90.251-32.449v-12.954c0-20.41 14.47-38.398 34.405-42.771l17.654-3.873c.36-.079.716-.169 1.072-.26C229.182 315.758 242.587 320.8 256 320.8c13.395 0 26.782-5.03 37.078-15.068.293.073.585.148.881.213l17.856 3.904c19.953 4.363 34.436 22.353 34.436 42.778v12.924z" data-original="#000000" class="active-path" data-old_color="#000000" fill="#7971EA"/><path d="M256.673 94.001L256 94c-5.522 0-10 4.477-10 10s4.478 10 10 10l.579.001h.048c5.501 0 9.973-4.446 9.999-9.953.025-5.523-4.431-10.021-9.953-10.047zm-48.25 263.874l9.877-9.877c3.906-3.905 3.906-10.237.001-14.142-3.906-3.905-10.236-3.905-14.143 0l-16.947 16.948c-3.905 3.905-3.905 10.236 0 14.142l16.947 16.948c1.953 1.953 4.512 2.929 7.071 2.929s5.118-.977 7.071-2.929c3.905-3.905 3.905-10.237 0-14.142l-9.877-9.877zm119.468-7.071l-16.946-16.948c-3.905-3.905-10.235-3.905-14.143 0-3.905 3.905-3.905 10.237 0 14.142l9.877 9.877-9.877 9.877c-3.905 3.905-3.905 10.237 0 14.142 1.953 1.953 4.512 2.929 7.071 2.929s5.118-.977 7.071-2.929l16.947-16.948c3.905-3.905 3.905-10.236 0-14.142zm-54.776-21.91c-4.763-2.799-10.891-1.207-13.688 3.555l-23.93 40.72c-2.799 4.761-1.207 10.89 3.555 13.688a9.995 9.995 0 0 0 13.688-3.555l23.93-40.72c2.799-4.762 1.207-10.89-3.555-13.688z" data-original="#000000" class="active-path" data-old_color="#000000" fill="#7971EA"/></svg>